<svg xmlns="http://www.w3.org/2000/svg" xmlns:xlink="http://www.w3.org/1999/xlink" version="1.1" x="0px" y="0px" viewBox="0 0 100 125" style="enable-background:new 0 0 100 100;" xml:space="preserve"><path d="M52.4,33.9C52.2,33,51.7,32.3,51,32c-0.1,0-0.1,0-0.2,0c0.5-2.6,2-12-2.9-17.5c-2.8-3.2-7.2-4.4-13.1-3.8  c-0.1,0-0.2-0.1-0.3-0.1c-4.6-0.2-8.1,1.2-10.5,4.1c-4.5,5.6-2.9,15-2.4,17.2c-0.1,0-0.1,0-0.2,0c-1.5,0.6-2,2.6-1.2,4.6  c0.6,1.7,2,2.7,3.2,2.7c0.1,0,0.3,0,0.4,0c1.1,3.4,2.8,6.2,5.8,7.9v3.5h-2l1.6,11.5h14.1l1.6-11.5h-2v-3.5c2.9-1.7,4.7-4.6,5.8-7.9  c0.1,0,0.3,0,0.4,0c1.3,0,2.6-1.1,3.2-2.7C52.5,35.7,52.6,34.7,52.4,33.9z M21.6,36c-0.5-1.3-0.2-2.4,0.3-2.6c0.1,0,0.2,0,0.2,0  c0.2,0,0.3,0.1,0.5,0.1c0.2,1.5,0.4,2.9,0.8,4.3C22.8,37.8,22,37.1,21.6,36z M43.8,52.2c-1.4,1.7-4.3,2.8-7.6,2.8s-6.2-1.1-7.6-2.8  h1.8c0.4,0,0.8-0.3,0.8-0.8v-3.5c1.5,0.6,3.2,1,5.1,1.1c1.9-0.1,3.6-0.5,5.1-1.1v3.5c0,0.4,0.3,0.8,0.8,0.8H43.8z M48.3,32.7  c0,0.5-0.1,0.9-0.2,1.4c-0.2,1.1-0.4,2.2-0.6,3.2c-0.1,0.4-0.2,0.7-0.3,1.1c-0.9,3.2-2.4,5.6-4.6,7.2c-0.3,0.2-0.7,0.4-1.1,0.6  c-1.5,0.8-3.2,1.3-5.3,1.4c-2.1-0.1-3.8-0.6-5.3-1.3c-0.4-0.2-0.8-0.4-1.1-0.7c-2.2-1.6-3.7-4-4.6-7.2c-0.1-0.4-0.2-0.7-0.3-1.1  c-0.2-1-0.4-2.1-0.6-3.2c-0.1-0.4-0.1-0.9-0.2-1.4c-0.1-1.2-0.2-2.5-0.3-3.9c0.2-1.1,0.4-2,0.7-2.8c0.5-0.1,1.5-0.3,2.6-0.8  c0.2,0.3,0.5,0.4,0.8,0.4c0.2,0,2.4-0.1,4.7-1.1c0,0.1,0,0.2,0,0.3c0.1,0.4,0.5,0.7,0.9,0.7c0.2,0,4.2,0.1,6.6-2.7  c0.9,2.3,3.1,6,7.4,8.3l0.6,0.9C48.3,32.3,48.3,32.5,48.3,32.7z M50.8,36c-0.4,1.1-1.2,1.7-1.8,1.8c0.3-1.4,0.6-2.8,0.8-4.3  c0.3-0.1,0.5-0.2,0.7-0.1c0.3,0.1,0.5,0.4,0.5,0.8C51.1,34.7,51,35.4,50.8,36z M34.5,38v-2.1c0-0.4,0.3-0.8,0.8-0.8s0.8,0.3,0.8,0.8  v1.9h1.2c0.4,0,0.8,0.3,0.8,0.8s-0.3,0.8-0.8,0.8h-1.3C35.1,39.3,34.5,38.7,34.5,38z M30.9,33.2c0,0.8-0.7,1.5-1.5,1.5  S28,34,28,33.2s0.7-1.5,1.5-1.5S30.9,32.4,30.9,33.2z M44.4,33.2c0,0.8-0.7,1.5-1.5,1.5c-0.8,0-1.5-0.7-1.5-1.5s0.7-1.5,1.5-1.5  C43.7,31.7,44.4,32.4,44.4,33.2z M39.9,42.6c0,1.2-1.9,1.6-3.7,1.6s-3.7-0.4-3.7-1.6c0-0.4,0.3-0.8,0.8-0.8c0.3,0,0.6,0.2,0.7,0.5  c0.3,0.1,1,0.4,2.2,0.4s2-0.2,2.2-0.4c0.1-0.3,0.4-0.5,0.7-0.5C39.5,41.9,39.9,42.2,39.9,42.6z M94.7,65.7l0.7-3.2  c0.1-0.1,0.2-0.1,0.3-0.3c0.1-0.2,0.1-0.4,0.1-0.6c-0.6-1.7-2.8-3.1-6.3-4c-0.6-0.2-1.3-0.3-2-0.4c0,0,0,0,0,0  c-0.6-0.1-1.2-0.2-1.8-0.3c0,0,0,0,0,0c-1.1-0.1-2.2-0.2-3.4-0.2l-0.5,0l-0.5,0c-1.2,0-2.3,0.1-3.4,0.2c0,0,0,0,0,0  c-0.6,0.1-1.2,0.2-1.8,0.3c0,0,0,0,0,0c-0.7,0.1-1.4,0.3-2,0.4c0,0,0,0,0,0c0,0,0,0,0,0c-3.5,0.9-5.7,2.3-6.3,4  c-0.1,0.2,0,0.4,0.1,0.6c0.1,0.1,0.2,0.2,0.3,0.3l0.7,3.2c-0.7,0.1-1.3,0.6-1.4,1.3h-3.1L52.4,51.9c-0.9-1.2-2.3-1.8-3.6-1.8  l-1.9,13.3L46.8,64l0,0.2l0.1,0.8l2.9,23.5H22.6l0.1-0.5l2.8-23l0.1-0.8l0-0.2l-0.1-0.6l-1.8-12.9c-1.1,0.1-2.2,0.7-3,1.6L5,70.3  c-0.9,1-1.3,2.4-1.1,3.8c0.2,1.4,1,2.6,2.2,3.3l15,9.5v1.5c0,0.6,0.4,1,1,1h28.2c0.6,0,1-0.4,1-1V65.9l6.9,8.8  c0.9,1.1,2.3,1.8,3.7,1.8h11.7c1.2,0,2.3-0.5,3.1-1.2c0.2,0.1,0.4,0.1,0.6,0.1l10.7,0c1,0,1.7-0.9,1.7-2.1c0-0.6-0.2-1.2-0.6-1.6  c-0.3-0.3-0.7-0.5-1.1-0.5c0,0,0,0,0,0l-1.5,0c0-0.2,0.1-0.4,0.1-0.7c0,0,0,0,0,0h7.9c1,0,1.8-0.8,1.8-1.8v-1.4  C96.2,66.5,95.5,65.8,94.7,65.7z M21.1,75.7l-5.3-3.3l5.3-6.1V75.7z M85.8,58.4c0.4,0.1,0.8,0.1,1.2,0.2c0,0,0,0,0,0l0.3,0.3l0,0  l-1.1,0.8l-1.1-0.8L85.8,58.4z M81.5,58.2l0.2,0l0.2,0h0l0.9,0.7l0,0l-1.1,0.8l-1.1-0.8L81.5,58.2z M76.2,58.9l0.3-0.3c0,0,0,0,0,0  c0.4-0.1,0.8-0.1,1.2-0.2l0.6,0.5l0,0l-1.1,0.8L76.2,58.9L76.2,58.9L76.2,58.9z M73,59.4l-1,0.8c-0.2,0.1-0.3,0.4-0.3,0.6  c0,0.2,0.1,0.3,0.2,0.5c0.3,0.3,0.7,0.4,1.1,0.1l1.9-1.5l1.4,1.1c0,0.1,0.1,0.2,0.2,0.3c0.2,0.2,0.5,0.3,0.7,0.3  c0.3,0.1,0.5,0,0.7-0.3c0.1-0.1,0.1-0.2,0.2-0.3l1.4-1.1l0,0l1.4,1.1c0,0,0,0,0,0c0,0.1,0.1,0.2,0.2,0.3c0.2,0.2,0.5,0.3,0.7,0.3  c0.3,0.1,0.5,0,0.7-0.3c0.1-0.1,0.1-0.2,0.2-0.3c0,0,0,0,0,0l1.4-1.1l0,0l0,0l1.4,1.1c0,0,0,0,0,0c0,0.1,0.1,0.2,0.2,0.3  c0.2,0.2,0.5,0.3,0.7,0.3c0.3,0.1,0.5,0,0.7-0.3c0.1-0.1,0.1-0.2,0.2-0.3c0,0,0,0,0,0l1.4-1.1l0,0l1.9,1.5c0.3,0.3,0.8,0.2,1.1-0.1  c0.1-0.1,0.2-0.3,0.2-0.5c0-0.2-0.1-0.4-0.3-0.6l-0.9-0.8c1.5,0.5,2.6,1.1,3.3,1.8c-0.3,0-0.7,0.1-1,0.2c-0.1,0-0.2,0.1-0.3,0.1  c-0.4,0.1-0.6,0.4-0.8,0.7c-0.1,0.1-0.2,0.3-0.3,0.4c-0.1,0.1-0.1,0.2-0.2,0.4c-0.1,0.2-0.2,0.3-0.3,0.4c-0.1,0-0.4-0.2-0.6-0.3  c0,0,0,0-0.1,0c-0.5-0.3-1.2-0.7-1.8-0.6c-0.5,0.1-0.9,0.4-1.2,0.8c-0.1,0.1-0.2,0.2-0.3,0.3c-0.2,0.2-0.5,0.6-0.6,0.6  c-0.1,0-0.5-0.3-0.6-0.4c-0.2-0.1-0.4-0.3-0.6-0.4c-0.3-0.2-0.7-0.4-1.1-0.4c-0.4,0-0.7,0.2-1,0.4c-0.2,0.2-0.4,0.3-0.6,0.5  c-0.2,0.2-0.5,0.5-0.6,0.5c-0.1,0-0.5-0.3-0.7-0.5c-0.2-0.2-0.4-0.4-0.6-0.5c-0.3-0.2-0.6-0.4-1-0.4c0,0,0,0-0.1,0  c-0.4,0-0.7,0.2-1.1,0.4c-0.2,0.1-0.4,0.3-0.6,0.4c-0.2,0.2-0.5,0.4-0.6,0.4c-0.1,0-0.4-0.4-0.6-0.6c-0.1-0.1-0.2-0.2-0.3-0.3  c-0.3-0.4-0.7-0.7-1.2-0.8c-0.7-0.1-1.3,0.3-1.8,0.6c0,0,0,0-0.1,0c-0.2,0.1-0.5,0.3-0.6,0.3c-0.1,0-0.2-0.2-0.3-0.4  c-0.1-0.1-0.2-0.3-0.2-0.4c-0.1-0.1-0.2-0.3-0.2-0.4c-0.2-0.3-0.5-0.6-0.8-0.7c-0.1,0-0.2-0.1-0.3-0.1c-0.3-0.1-0.7-0.2-1-0.2  C70.4,60.6,71.5,59.9,73,59.4z M70.6,62.9c0.1,0.1,0.2,0.3,0.3,0.5c0.3,0.5,0.7,1.3,1.5,1.4c0.6,0.1,1.2-0.2,1.7-0.5  c0.2-0.1,0.7-0.4,0.8-0.4c0.1,0,0.4,0.4,0.5,0.5c0.4,0.5,0.9,1.1,1.6,1.1c0.7,0.1,1.2-0.4,1.7-0.8c0.2-0.2,0.6-0.5,0.7-0.5  c0.1,0,0.4,0.3,0.6,0.5c0.3,0.3,0.6,0.6,1,0.8c0.2,0.1,0.4,0.2,0.7,0.2c0.3,0,0.5-0.1,0.7-0.2c0.4-0.2,0.7-0.5,1-0.8  c0.2-0.2,0.5-0.5,0.6-0.5c0.1,0,0.5,0.3,0.7,0.5c0.5,0.4,1,0.8,1.7,0.8c0.7-0.1,1.2-0.6,1.6-1.1c0.2-0.2,0.4-0.5,0.5-0.5  c0.1,0,0.6,0.2,0.8,0.4c0.5,0.3,1.1,0.7,1.7,0.5c0.8-0.2,1.2-0.9,1.5-1.4c0.1-0.2,0.3-0.4,0.3-0.5c0,0,0,0,0,0c0.3,0,0.6,0,0.8-0.1  l-0.6,2.8l0,0.1c0,0.2-0.2,0.3-0.3,0.3c-1.8,0.1-3.6,0.2-5.5,0.3c-0.8,0-1.6,0-2.3,0c-2.2,0-4.3,0-6.5,0c-0.8,0-1.6,0-2.3,0  c-1.8-0.1-3.7-0.2-5.5-0.3c-0.2,0-0.3-0.1-0.3-0.3l0-0.1l-0.6-2.8C70,62.9,70.3,62.9,70.6,62.9z M88,72.8C88,72.8,88,72.8,88,72.8  c0.1,0,0.2,0.2,0.2,0.6c0,0.4-0.2,0.6-0.2,0.6l-10.2,0l-0.5,0c-0.6,0-0.7-1.2-0.7-1.9c0-0.6,0.1-1,0.2-1.4c0.1-0.3,0.1-0.5,0.2-0.5  l1.1,0l6.8,0c0.1,0,0.2,0.2,0.2,0.5c0,0,0,0,0,0c0,0.4-0.1,0.6-0.1,0.6l-2.7,0c-0.4,0-0.7,0.3-0.7,0.8c0,0.4,0.3,0.7,0.7,0.7  L88,72.8z M94.7,68.9c0,0.1-0.1,0.3-0.3,0.3H86c-0.3-0.3-0.7-0.5-1.1-0.5c0,0,0,0,0,0l-7.7,0l-0.2,0c0,0,0,0,0,0  c-0.4,0-0.7,0.1-0.9,0.4c0,0-0.1,0.1-0.1,0.1h-6.7c-0.1,0-0.3-0.1-0.3-0.3v-1.4c0-0.1,0.1-0.3,0.3-0.3h0.5c0.3,0.2,0.7,0.4,1,0.4  c1.8,0.1,3.7,0.2,5.5,0.3c0.1,0,0.1,0,0.2,0c1.8,0.1,3.6,0.1,5.4,0.1c1.9,0,3.8,0,5.6-0.1c1.8-0.1,3.7-0.2,5.5-0.3  c0.4,0,0.8-0.2,1.1-0.4h0.5c0.1,0,0.3,0.1,0.3,0.3V68.9z M81,52.1c-0.7-0.5-0.9-1.4-0.6-2.2c0.2-0.6,0.7-1.1,1.1-1.5  c0.3-0.3,0.8-0.3,1.1,0s0.3,0.8,0,1.1c-0.2,0.2-0.4,0.4-0.6,0.7c-0.1,0.1-0.1,0.2-0.2,0.3c0,0.1-0.1,0.3,0.1,0.5c0,0,0,0,0,0  C82,51,82.1,51,82.2,51c0.2,0.1,0.4,0.3,0.6,0.5c0.3,0.3,0.4,0.7,0.4,1.2c0,0.8-0.4,1.6-1,2.2c-0.1,0.1-0.3,0.2-0.5,0.2  c-0.2,0-0.4-0.1-0.5-0.2c-0.3-0.3-0.3-0.8,0-1.1c0.3-0.4,0.5-0.8,0.5-1.2c0-0.1,0-0.1,0-0.1c0,0-0.2-0.1-0.3-0.2  C81.3,52.3,81.1,52.2,81,52.1z M75.9,52.8c-0.7-0.5-0.9-1.4-0.6-2.2c0.2-0.6,0.7-1.1,1.1-1.5c0.3-0.3,0.8-0.3,1.1,0  c0.3,0.3,0.3,0.8,0,1.1c-0.2,0.2-0.4,0.4-0.6,0.7c-0.1,0.1-0.1,0.2-0.2,0.3c0,0.1-0.1,0.3,0.1,0.5c0,0,0,0,0,0  c0.1,0.1,0.2,0.1,0.2,0.2c0.2,0.1,0.4,0.3,0.6,0.5c0.3,0.3,0.4,0.7,0.4,1.2c0,0.8-0.4,1.6-1,2.2c-0.1,0.1-0.3,0.2-0.5,0.2  c-0.2,0-0.4-0.1-0.5-0.2c-0.3-0.3-0.3-0.8,0-1.1c0.3-0.3,0.5-0.8,0.5-1.2c0-0.1,0-0.1,0-0.1c0,0-0.2-0.1-0.3-0.2  C76.2,53,76,52.9,75.9,52.8z M86.1,52.8c-0.7-0.5-1-1.4-0.6-2.2c0.2-0.6,0.7-1.1,1.1-1.5c0.3-0.3,0.8-0.3,1.1,0  c0.3,0.3,0.3,0.8,0,1.1c-0.2,0.2-0.4,0.4-0.6,0.7c-0.1,0.1-0.1,0.2-0.2,0.3c0,0.1-0.1,0.3,0.1,0.5c0,0,0,0,0,0  c0.1,0.1,0.2,0.1,0.2,0.2c0.2,0.1,0.4,0.3,0.6,0.5c0.4,0.5,0.4,1,0.4,1.2c0,0.8-0.4,1.6-1,2.2c-0.1,0.1-0.3,0.2-0.5,0.2  c-0.2,0-0.4-0.1-0.5-0.2c-0.3-0.3-0.3-0.8,0-1.1c0.3-0.3,0.5-0.8,0.6-1.2c0-0.1,0-0.1,0-0.1c0,0-0.2-0.1-0.3-0.2  C86.4,53,86.3,52.9,86.1,52.8z"/><text x="0" y="115" fill-opacity="0" font-size="5px" font-weight="bold" font-family="'Helvetica Neue', Helvetica, Arial-Unicode, Arial, Sans-serif">Created by Llisole</text><text x="0" y="120" fill-opacity="0" font-size="5px" font-weight="bold" font-family="'Helvetica Neue', Helvetica, Arial-Unicode, Arial, Sans-serif">from the Noun Project</text></svg>
