<svg xmlns="http://www.w3.org/2000/svg" xmlns:xlink="http://www.w3.org/1999/xlink" xml:space="preserve" version="1.1" style="shape-rendering:geometricPrecision;text-rendering:geometricPrecision;image-rendering:optimizeQuality;" viewBox="0 0 846.66 858.325" x="0px" y="0px" fill-rule="evenodd" clip-rule="evenodd"><defs><style type="text/css">
   
    .fil0 {fill:black;fill-rule:nonzero}
   
  </style></defs><g><path class="fil0" d="M225.62 351.62l73.68 0c-14.6,-26.17 -24.43,-59.54 -29.73,-93.48 -5,-32.02 -6.17,-64.97 -3.65,-92.6 2.8,-30.62 10.63,-56.2 23.41,-69.8 8.01,-8.55 17.72,-13.25 29.12,-13.25 19.24,0 42.89,10.71 66.91,27.5 18.36,12.83 37.46,29.4 54.98,47.25l1.57 -1.6 -0.04 -0.05c39.68,-40.1 87.8,-73.1 120.31,-73.1 11.4,0 21.11,4.69 29.12,13.25 12.78,13.6 20.61,39.18 23.4,69.8 2.52,27.63 1.36,60.58 -3.65,92.6 -5.72,36.64 -16.72,72.64 -33.31,99.61 36.8,9.2 69.76,28.38 95.83,54.44l0.09 0.09c32.37,32.39 54.12,75.41 59.34,123.2l79.88 0c12.37,0 22.41,10.05 22.41,22.42 0,12.37 -10.04,22.42 -22.41,22.42l-79.88 0c-5.22,47.79 -26.97,90.82 -59.34,123.19l-0.09 0.09c-37.37,37.37 -88.92,60.57 -145.62,60.57l-310.3 0c-56.69,0 -108.24,-23.2 -145.61,-60.57l-0.09 -0.09c-37.37,-37.37 -60.57,-88.92 -60.57,-145.61l0 -0.01c0,-56.69 23.2,-108.24 60.57,-145.61l0.09 -0.09c24.47,-24.48 55.05,-42.88 89.16,-52.66 -7.53,-9.84 -16.2,-18.47 -26.26,-25.53 -18.12,-12.69 -41.43,-20.77 -71.87,-22.42 -12.33,-0.63 -21.81,-11.14 -21.19,-23.47 0.63,-12.32 11.14,-21.81 23.47,-21.18 39.46,2.14 70.41,13.13 95.16,30.47 8.06,5.65 15.41,11.94 22.13,18.79 -1.84,-26.7 -12.8,-53.41 -37.49,-80.1 -8.36,-9.04 -7.81,-23.16 1.23,-31.52 9.03,-8.35 23.16,-7.8 31.51,1.23 44.95,48.6 55.61,97.22 47.73,145.82zm129.28 0l30.12 0 -1.05 -1.79c-10.66,-18.44 -16.8,-41.17 -16.8,-70.47l0.02 -1.34 0.01 -0.15c0.41,-13.96 6.44,-30.51 16.32,-47.9 7.14,-12.58 16.41,-25.93 26.99,-39.19 -16.34,-16.95 -34.05,-32.53 -50.72,-44.19 -15.42,-10.77 -29.22,-17.97 -38.81,-19.11 -5.16,6.73 -8.76,22.14 -10.58,42.1 -2.21,24.15 -1.15,53.23 3.31,81.73 6.66,42.69 20.42,83.12 41.19,100.31zm107.57 -152.79l-5.34 6.06c-14.24,16.17 -26.48,32.59 -34.74,47.13 -6.28,11.06 -10.13,20.41 -10.38,26.68l0 0.06 -0.01 0.31 0 0.29c0,20.95 3.9,36.35 10.66,48.05l0.27 0.46 0.05 0.08 0.22 0.37 0.09 0.16 0.18 0.3 0.14 0.23 0.14 0.21 0.2 0.31 0.08 0.13 0.25 0.39 0.03 0.05 0.29 0.44 0.02 0.03 0.27 0.41 0.07 0.1 0.22 0.33 0.12 0.18 0.18 0.26 0.17 0.24 0.12 0.18 0.24 0.33 0.07 0.1 0.29 0.4 0.01 0.02 0.32 0.43 0.03 0.04 0.27 0.37 0.1 0.12 0.23 0.3 0.14 0.19 0.17 0.22 0.21 0.25 0.11 0.16 0.27 0.33 0.39 0.47 0 0.01 0.33 0.41 0.05 0.06 0.28 0.33 0.12 0.13 0.22 0.26 0.17 0.21 0.17 0.19 0.24 0.28 0.1 0.11 0.31 0.34 0.04 0.06 0.35 0.38 0.02 0.02 0.33 0.37 0.08 0.08 0.28 0.3 0.14 0.15 0.22 0.23 0.21 0.22 0.15 0.16 0.27 0.28 0.1 0.09 0.33 0.34 0.03 0.04 0.37 0.37 0.04 0.03 0.33 0.34 0.11 0.09 0.27 0.27 0.17 0.17 0.21 0.2 0.23 0.23 0.15 0.13 0.3 0.29 0.08 0.07 0.38 0.35 0.01 0.01 0.39 0.36 0.06 0.05 0.33 0.3 0.13 0.11 0.47 0.41 0.2 0.18 0.27 0.24 0.13 0.11 0.34 0.3 0.06 0.04 0.41 0.35 0.01 0.01 0.39 0.33 0.09 0.08 0.32 0.27 0.16 0.12 0.26 0.22 0.23 0.18 0.19 0.15 0.3 0.24 0.12 0.1 0.37 0.29 0.05 0.04 0.42 0.33 0.04 0.02 0.38 0.3 0.12 0.09 0.31 0.25 0.19 0.13 0.24 0.19 0.27 0.2 0.17 0.12 0.34 0.25 0.1 0.08 0.41 0.3 0.02 0.02 0.45 0.31 0.05 0.05 0.39 0.27 0.14 0.09 0.31 0.23 0.21 0.15 0.24 0.16 4.85 0c-0.72,-5.44 -0.98,-11.11 -0.85,-16.94 0.53,-22.11 6.89,-46.92 15.16,-69.68 4.2,-11.6 17.03,-17.6 28.64,-13.4 11.6,4.21 17.6,17.04 13.39,28.64 -6.87,18.93 -12.14,38.91 -12.53,55.5 -0.15,6.1 0.33,11.53 1.63,15.88l29.55 0c20.78,-17.19 34.53,-57.62 41.19,-100.31 4.46,-28.5 5.52,-57.58 3.31,-81.73 -1.82,-19.98 -5.4,-35.4 -10.58,-42.12 -20.28,2.1 -54.8,28.19 -85.91,59.66l-0.09 0c-3.81,3.85 -7.54,7.77 -11.18,11.71zm-336.65 388.99c8.41,-9.04 22.56,-9.55 31.6,-1.14 9.04,8.41 9.55,22.57 1.14,31.61 -13.04,14.07 -32.66,25.01 -55.28,29.78 -5.72,1.2 -11.63,2.01 -17.72,2.38 5.4,7.68 11.43,14.88 18.05,21.49 23.06,23.04 53.01,39.19 86.37,45.01 51.94,-49.09 78.47,-99.48 78.75,-151.15 0.29,-52.39 -26.07,-107.97 -79.88,-166.76 -32.92,5.99 -62.44,22.04 -85.24,44.81 -29.24,29.27 -47.4,69.65 -47.4,114.04l0 0.01c0,16.25 2.44,31.96 6.96,46.79 10.83,1.94 21.38,1.62 31,-0.4 13.39,-2.82 24.61,-8.87 31.65,-16.47zm20.04 -64.67c-12.38,0 -22.42,-10.05 -22.42,-22.42 0,-12.37 10.04,-22.41 22.42,-22.41l10.38 0c12.37,0 22.42,10.04 22.42,22.41 0,12.37 -10.05,22.42 -22.42,22.42l-10.38 0zm374.75 -126.7c45.81,57.77 68.27,114.29 67.97,169.53 -0.29,53.49 -21.74,104.59 -63.75,153.36l3.12 0c44.4,0 84.77,-18.16 114.05,-47.4 29.24,-29.27 47.39,-69.65 47.39,-114.04l0 -0.01c0,-44.39 -18.15,-84.77 -47.39,-114.04 -29.28,-29.24 -69.65,-47.4 -114.05,-47.4l-7.34 0zm-57.97 322.89c53.61,-49.85 81.01,-101.03 81.28,-153.54 0.3,-53.16 -26.86,-109.6 -82.27,-169.35l-22.38 0 -6.33 0 -49.93 0c45.81,57.77 68.27,114.29 67.97,169.53 -0.29,53.49 -21.74,104.59 -63.75,153.36l75.41 0zm-137.6 0c53.62,-49.85 81.01,-101.03 81.29,-153.54 0.29,-53.16 -26.87,-109.6 -82.28,-169.35l-78.63 0c45.81,57.77 68.27,114.29 67.96,169.53 -0.28,53.49 -21.73,104.59 -63.75,153.36l75.41 0z"/></g><text x="0" y="861.66" fill-opacity="0" font-size="5px" font-weight="bold" font-family="'Helvetica Neue', Helvetica, Arial-Unicode, Arial, Sans-serif">Created by dewadesign</text><text x="0" y="866.66" fill-opacity="0" font-size="5px" font-weight="bold" font-family="'Helvetica Neue', Helvetica, Arial-Unicode, Arial, Sans-serif">from the Noun Project</text></svg>
