<svg xmlns="http://www.w3.org/2000/svg" xmlns:xlink="http://www.w3.org/1999/xlink" version="1.1" x="0px" y="0px" viewBox="0 0 70 87.5" style="enable-background:new 0 0 70 70;" xml:space="preserve"><style type="text/css">
	.st0{fill:none;stroke:#000000;stroke-width:2;stroke-linecap:round;stroke-linejoin:round;stroke-miterlimit:10;}
	.st1{fill:none;}
</style><g><g><g><path d="M35,57.9286118c-0.2558594,0-0.5117188-0.0976563-0.7070313-0.2929688L14.4130859,37.7557602     C11.5673828,34.916893,10,31.1375942,10,27.1151333s1.5673828-7.8017578,4.4140625-10.6416016     C20.0546875,10.8338842,29.0947266,10.6131811,35,15.8104467c5.9072266-5.1972656,14.9462891-4.9765625,20.5869141,0.6640615     C58.4326172,19.3133755,60,23.0926723,60,27.1151333s-1.5673828,7.8017597-4.4140625,10.6416035L35.7070313,57.635643     C35.5117188,57.8309555,35.2558594,57.9286118,35,57.9286118z M25.0605469,14.0702124     c-3.34375,0-6.6875,1.2724609-9.2333984,3.8183584C13.359375,20.3514614,12,23.6278286,12,27.1151333     s1.359375,6.7636738,3.8261719,9.2255878L35,55.5145493l19.1728516-19.1728516c0,0,0-0.0009766,0.0009766-0.0009766     C56.640625,33.8788071,58,30.602438,58,27.1151333s-1.359375-6.7636719-3.8261719-9.2255859     c-5.0917969-5.0917959-13.375-5.0927725-18.4667969-0.0009766c-0.390625,0.390625-1.0234375,0.390625-1.4140625,0     C31.7470703,15.3426733,28.4033203,14.0702124,25.0605469,14.0702124z"/></g></g><g><g><path d="M35,45.8612289c-3.2714844,0-5.9335938-2.6611328-5.9335938-5.9326172c0-0.5527344,0.4472656-1,1-1s1,0.4472656,1,1     c0,2.1679688,1.7646484,3.9326172,3.9335938,3.9326172c2.1679688,0,3.9326172-1.7646484,3.9326172-3.9326172     c0-2.1689453-1.7646484-3.9335938-3.9326172-3.9335938c-3.2714844,0-5.9335938-2.6621094-5.9335938-5.9335957     S31.7285156,24.1288052,35,24.1288052s5.9326172,2.6611328,5.9326172,5.9326172c0,0.5527344-0.4472656,1-1,1s-1-0.4472656-1-1     c0-2.1679688-1.7646484-3.9326172-3.9326172-3.9326172c-2.1689453,0-3.9335938,1.7646484-3.9335938,3.9326172     c0,2.1689472,1.7646484,3.9335957,3.9335938,3.9335957c3.2714844,0,5.9326172,2.6621094,5.9326172,5.9335938     S38.2714844,45.8612289,35,45.8612289z"/></g></g><g><g><path d="M35,47.8104477c-0.5527344,0-1-0.4472656-1-1v-1.9492188c0-0.5527344,0.4472656-1,1-1s1,0.4472656,1,1v1.9492188     C36,47.3631821,35.5527344,47.8104477,35,47.8104477z"/></g></g><g><g><path d="M35,26.1288052c-0.5527344,0-1-0.4472656-1-1v-1.9492188c0-0.5527344,0.4472656-1,1-1s1,0.4472656,1,1v1.9492188     C36,25.6815395,35.5527344,26.1288052,35,26.1288052z"/></g></g></g><text x="0" y="85" fill-opacity="0" font-size="5px" font-weight="bold" font-family="'Helvetica Neue', Helvetica, Arial-Unicode, Arial, Sans-serif">Created by Graphic Tigers</text><text x="0" y="90" fill-opacity="0" font-size="5px" font-weight="bold" font-family="'Helvetica Neue', Helvetica, Arial-Unicode, Arial, Sans-serif">from the Noun Project</text></svg>
